<svg width="33" height="33" viewBox="0 0 33 33" fill="none" xmlns="http://www.w3.org/2000/svg">
<g clip-path="url(#clip0_660_7997)">
<rect x="0.597656" y="0.408203" width="32" height="32" rx="16" fill="#1489FF"/>
<path d="M22.9979 10.4896L20.5935 23.0416C20.5935 23.0416 20.2571 23.9119 19.333 23.4945L13.7855 19.0899L13.7598 19.0769C14.5091 18.3801 20.3198 12.9699 20.5737 12.7247C20.9669 12.3449 20.7228 12.1188 20.2663 12.4057L11.6833 18.0502L8.37196 16.8964C8.37196 16.8964 7.85086 16.7045 7.80073 16.2871C7.74993 15.869 8.38911 15.6429 8.38911 15.6429L21.8884 10.159C21.8884 10.159 22.9979 9.65416 22.9979 10.4896Z" fill="#FEFEFE"/>
</g>
<defs>
<clipPath id="clip0_660_7997">
<rect width="32" height="32" fill="white" transform="translate(0.597656 0.408203)"/>
</clipPath>
</defs>
</svg>
