<svg width="15" height="20" viewBox="0 0 15 20" fill="none" xmlns="http://www.w3.org/2000/svg">
<path fill-rule="evenodd" clip-rule="evenodd" d="M0.141968 4.92166C0.624327 1.61288 3.94176 0.54662 4.2099 0.551525C4.41542 0.539104 4.83074 0.245943 5.66655 2.15524C6.43956 4.04771 6.98251 5.54141 6.04281 6.03121C5.04021 6.50416 3.61007 7.0647 3.91845 8.42804C4.13478 9.63207 6.54386 13.7158 7.41492 14.4883C8.50354 15.4541 9.64097 14.478 10.5345 13.9085C11.4451 13.2761 12.5291 14.5105 13.7804 16.1265C15.0148 17.8055 14.5534 18.019 14.4231 18.2537C14.3096 18.4256 11.7284 20.7675 8.54393 19.5771C5.25064 18.2902 -0.453736 8.40226 0.141968 4.92166Z" fill="#2D2D2D"/>
</svg>
