<svg width="13" height="14" viewBox="0 0 13 14" fill="none" xmlns="http://www.w3.org/2000/svg">
<path fill-rule="evenodd" clip-rule="evenodd" d="M6.49993 0.5C8.16761 0.5 9.51836 1.81626 9.51836 3.44118C9.51836 5.0661 8.16753 6.38237 6.49993 6.38237C4.83234 6.38237 3.4815 5.0661 3.4815 3.44118C3.4815 1.81626 4.83234 0.5 6.49993 0.5ZM6.58332 13.5C8.99912 13.4721 11.1336 12.3138 12.4582 10.5402L12.1104 9.11483C11.9984 8.35343 11.491 7.845 10.6548 7.54788L8.47723 6.93736C7.25507 7.59431 5.74469 7.59431 4.52245 6.93736L2.34488 7.54788C1.5087 7.845 1.00116 8.35343 0.889279 9.11483L0.541504 10.5402C1.86606 12.3139 4.00074 13.4745 6.41636 13.5H6.58332Z" fill="#3A3A3A"/>
</svg>
