<svg width="24" height="24" viewBox="0 0 24 24" fill="none" xmlns="http://www.w3.org/2000/svg">
<path d="M5.53846 2.76923C5.53846 4.29863 4.29863 5.53846 2.76923 5.53846C1.23983 5.53846 0 4.29863 0 2.76923C0 1.23983 1.23983 0 2.76923 0C4.29863 0 5.53846 1.23983 5.53846 2.76923Z" fill="#3A3A3A"/>
<path d="M5.53846 12C5.53846 13.5294 4.29863 14.7692 2.76923 14.7692C1.23983 14.7692 0 13.5294 0 12C0 10.4706 1.23983 9.23077 2.76923 9.23077C4.29863 9.23077 5.53846 10.4706 5.53846 12Z" fill="#3A3A3A"/>
<path d="M5.53846 21.2308C5.53846 22.7602 4.29863 24 2.76923 24C1.23983 24 0 22.7602 0 21.2308C0 19.7014 1.23983 18.4615 2.76923 18.4615C4.29863 18.4615 5.53846 19.7014 5.53846 21.2308Z" fill="#3A3A3A"/>
<path d="M14.7692 2.76923C14.7692 4.29863 13.5294 5.53846 12 5.53846C10.4706 5.53846 9.23077 4.29863 9.23077 2.76923C9.23077 1.23983 10.4706 0 12 0C13.5294 0 14.7692 1.23983 14.7692 2.76923Z" fill="#3A3A3A"/>
<path d="M14.7692 12C14.7692 13.5294 13.5294 14.7692 12 14.7692C10.4706 14.7692 9.23077 13.5294 9.23077 12C9.23077 10.4706 10.4706 9.23077 12 9.23077C13.5294 9.23077 14.7692 10.4706 14.7692 12Z" fill="#3A3A3A"/>
<path d="M14.7692 21.2308C14.7692 22.7602 13.5294 24 12 24C10.4706 24 9.23077 22.7602 9.23077 21.2308C9.23077 19.7014 10.4706 18.4615 12 18.4615C13.5294 18.4615 14.7692 19.7014 14.7692 21.2308Z" fill="#3A3A3A"/>
<path d="M24 2.76923C24 4.29863 22.7602 5.53846 21.2308 5.53846C19.7014 5.53846 18.4615 4.29863 18.4615 2.76923C18.4615 1.23983 19.7014 0 21.2308 0C22.7602 0 24 1.23983 24 2.76923Z" fill="#3A3A3A"/>
<path d="M24 12C24 13.5294 22.7602 14.7692 21.2308 14.7692C19.7014 14.7692 18.4615 13.5294 18.4615 12C18.4615 10.4706 19.7014 9.23077 21.2308 9.23077C22.7602 9.23077 24 10.4706 24 12Z" fill="#3A3A3A"/>
<path d="M24 21.2308C24 22.7602 22.7602 24 21.2308 24C19.7014 24 18.4615 22.7602 18.4615 21.2308C18.4615 19.7014 19.7014 18.4615 21.2308 18.4615C22.7602 18.4615 24 19.7014 24 21.2308Z" fill="#3A3A3A"/>
</svg>
