<svg width="33" height="33" viewBox="0 0 33 33" fill="none" xmlns="http://www.w3.org/2000/svg">
<g clip-path="url(#clip0_660_7996)">
<rect x="0.402344" y="0.408203" width="32" height="32" rx="16" fill="#1489FF"/>
<path fill-rule="evenodd" clip-rule="evenodd" d="M9.41253 22.0537C9.09872 21.9608 8.81239 21.7956 8.5777 21.5721C8.34302 21.3485 8.16686 21.0732 8.0641 20.7692C7.47688 19.1981 7.30288 12.6377 8.43383 11.3427C8.81023 10.9214 9.34165 10.662 9.91276 10.6208C12.9467 10.3023 22.3205 10.3448 23.3971 10.727C23.6999 10.8229 23.9765 10.9844 24.2063 11.1995C24.436 11.4146 24.613 11.6777 24.7238 11.969C25.3654 13.5931 25.3871 19.4953 24.6368 21.0558C24.4377 21.462 24.1045 21.791 23.6907 21.99C22.5598 22.542 10.9132 22.5314 9.41253 22.0537ZM14.2299 18.9752L19.6671 16.2152L14.2299 13.4339V18.9752Z" fill="white"/>
</g>
<defs>
<clipPath id="clip0_660_7996">
<rect width="32" height="32" fill="white" transform="translate(0.402344 0.408203)"/>
</clipPath>
</defs>
</svg>
