<svg width="33" height="33" viewBox="0 0 33 33" fill="none" xmlns="http://www.w3.org/2000/svg">
<g clip-path="url(#clip0_660_7994)">
<rect x="0.800781" y="0.408203" width="32" height="32" rx="16" fill="#1489FF"/>
<path d="M17.587 22.0086C11.5737 22.0086 8.14389 17.8044 8.00098 10.8086H11.0131C11.112 15.9433 13.3326 18.1183 15.0915 18.5668V10.8086H17.9278V15.237C19.6647 15.0464 21.4895 13.0284 22.1052 10.8086H24.9414C24.7094 11.9599 24.247 13.0499 23.5831 14.0106C22.9191 14.9713 22.068 15.7819 21.0828 16.3918C22.1825 16.949 23.1538 17.7378 23.9326 18.706C24.7114 19.6742 25.28 20.7998 25.601 22.0086H22.4789C22.1908 20.9587 21.6053 20.0188 20.7957 19.3069C19.9861 18.5949 18.9884 18.1424 17.9278 18.0062V22.0086H17.587Z" fill="white"/>
</g>
<defs>
<clipPath id="clip0_660_7994">
<rect width="32" height="32" fill="white" transform="translate(0.800781 0.408203)"/>
</clipPath>
</defs>
</svg>
