<svg width="10" height="12" viewBox="0 0 10 12" fill="none" xmlns="http://www.w3.org/2000/svg">
<path fill-rule="evenodd" clip-rule="evenodd" d="M0.808804 2.86414C1.08653 0.959079 2.99657 0.345172 3.15095 0.347996C3.26928 0.340845 3.5084 0.172055 3.98963 1.27135C4.43469 2.36095 4.7473 3.22096 4.20626 3.50297C3.62901 3.77527 2.80559 4.09801 2.98314 4.88296C3.1077 5.57619 4.49475 7.92742 4.99627 8.37222C5.62305 8.92828 6.27793 8.36628 6.79241 8.03841C7.3167 7.67429 7.94078 8.38497 8.66123 9.3154C9.37197 10.2821 9.1063 10.405 9.03127 10.5402C8.96592 10.6391 7.47979 11.9875 5.6463 11.3021C3.75017 10.5612 0.465675 4.86824 0.808656 2.86426L0.808804 2.86414Z" fill="#1489FF"/>
</svg>
